<?xml version="1.0" encoding="utf-8"?>
<!-- generator: adobe illustrator 18.1.0, svg export plug-in . svg version: 6.00 build 0)  -->
<!doctype svg public "-//w3c//dtd svg 1.1//en" "http://www.w3.org/graphics/svg/1.1/dtd/svg11.dtd">
<svg version="1.1" id="ebene_1" xmlns="http://www.w3.org/2000/svg" xmlns:xlink="http://www.w3.org/1999/xlink" x="0px" y="0px"
	 viewbox="0 0 841.9 841.9" enable-background="new 0 0 841.9 841.9" xml:space="preserve">
<g>
	<path d="m297.6,677.3c-68.5,0-132.9-26.7-181.3-75.1s41.3,489.4,41.3,420.9s26.7-132.9,75.1-181.3c48.4-48.4,112.8-75.1,181.3-75.1
		s132.9,26.7,181.3,75.1c48.4,48.4,75.1,112.8,75.1,181.3s-26.7,132.9-75.1,181.3s366.1,677.3,297.6,677.3z m297.6,204.6
		c-57.8,0-112.1,22.5-153,63.4c-40.9,40.9-63.4,95.2-63.4,153c0,57.8,22.5,112.1,63.4,153c40.9,40.9,95.2,63.4,153,63.4
		c57.8,0,112.1-22.5,153-63.4c40.9-40.9,63.4-95.2,63.4-153c0-57.8-22.5-112.1-63.4-153c409.8,227.1,355.4,204.6,297.6,204.6z"/>
</g>
<polygon points="130.1,240.3 61.3,420.9 297.6,420.9 297.6,184.6 "/>
<polygon points="117,588.5 297.6,657.3 297.6,420.9 61.3,420.9 "/>
<polygon points="465.2,601.6 534,420.9 297.6,420.9 297.6,657.3 "/>
<polygon points="478.3,253.4 297.6,184.6 297.6,420.9 534,420.9 "/>
<path fill="#ffffff" d="m293.5,452.6h99.6c14.9,0,24.8-9.9,24.8-24.8s408,403,393.1,403h-74.8v278.2c0-14.9-9.9-24.8-24.8-24.8
	c-14.9,0-24.8,9.9-24.8,24.8v149.6c268.7,440.2,278.7,452.6,293.5,452.6z"/>
</svg>
