<?xml version="1.0" encoding="utf-8"?>
<!-- generator: adobe illustrator 17.1.0, svg export plug-in . svg version: 6.00 build 0)  -->
<!doctype svg public "-//w3c//dtd svg 1.1//en" "http://www.w3.org/graphics/svg/1.1/dtd/svg11.dtd">
<svg version="1.1" id="ebene_1" xmlns="http://www.w3.org/2000/svg" xmlns:xlink="http://www.w3.org/1999/xlink" x="0px" y="0px"
	 viewbox="0 0 24 24" enable-background="new 0 0 24 24" xml:space="preserve">
<path fill="none" stroke="#000000" stroke-miterlimit="10" d="m13.4,19.4c0.8-0.8,0.8-2,0-2.8c-0.8-0.8-2-0.8-2.8,0
	c-0.8,0.8-0.8,2.1,0,2.8c11.4,20.2,12.6,20.2,13.4,19.4z m7.8,15.8c-0.5,0-1-0.2-1.4-0.6c-0.8-0.8-0.8-2,0-2.8
	c3.1-3.1,8.2-3.1,11.3,0c0.8,0.8,0.8,2,0,2.8c-0.8,0.8-2,0.8-2.8,0c-1.6-1.6-4.1-1.6-5.7,0c8.8,15.6,8.3,15.8,7.8,15.8z"/>
<path fill="none" stroke="#000000" stroke-miterlimit="10" d="m20.5,11.5c-0.5,0-1-0.2-1.4-0.6c15.2,7,8.8,7,4.9,10.9
	c-0.8,0.8-2,0.8-2.8,0c-0.8-0.8-0.8-2,0-2.8c5.5-5.5,14.3-5.5,19.8,0c0.8,0.8,0.8,2,0,2.8c21.5,11.3,21,11.5,20.5,11.5z"/>
</svg>
