<?xml version="1.0" encoding="utf-8"?>
<!-- generator: adobe illustrator 17.1.0, svg export plug-in . svg version: 6.00 build 0)  -->
<!doctype svg public "-//w3c//dtd svg 1.1//en" "http://www.w3.org/graphics/svg/1.1/dtd/svg11.dtd">
<svg version="1.1" id="ebene_1" xmlns="http://www.w3.org/2000/svg" xmlns:xlink="http://www.w3.org/1999/xlink" x="0px" y="0px"
	 viewbox="0 0 24 24" enable-background="new 0 0 24 24" xml:space="preserve">
<path d="m13.4,19.4c0.8-0.8,0.8-2,0-2.8c-0.8-0.8-2-0.8-2.8,0c-0.8,0.8-0.8,2.1,0,2.8c11.4,20.2,12.6,20.2,13.4,19.4z"/>
<path d="m13.4,19.4c0.8-0.8,0.8-2,0-2.8c-0.8-0.8-2-0.8-2.8,0c-0.8,0.8-0.8,2.1,0,2.8c11.4,20.2,12.6,20.2,13.4,19.4z m7.8,15.8
	c-0.5,0-1-0.2-1.4-0.6c-0.8-0.8-0.8-2,0-2.8c3.1-3.1,8.2-3.1,11.3,0c0.8,0.8,0.8,2,0,2.8c-0.8,0.8-2,0.8-2.8,0
	c-1.6-1.6-4.1-1.6-5.7,0c8.8,15.6,8.3,15.8,7.8,15.8z"/>
<g>
	<path d="m12,5c3.5,0,6.7,1.3,9.2,3.8c0.4,0.4,0.4,1,0,1.4c-0.2,0.2-0.4,0.3-0.7,0.3c-0.3,0-0.5-0.1-0.7-0.3c17.7,8.1,14.9,7,12,7
		c-2.9,0-5.7,1.1-7.8,3.2c-0.2,0.2-0.4,0.3-0.7,0.3c-0.3,0-0.5-0.1-0.7-0.3c-0.4-0.4-0.4-1,0-1.4c5.3,6.4,8.5,5,12,5 m12,4
		c8.4,4,4.8,5.4,2.1,8.1c-0.8,0.8-0.8,2,0,2.8c0.4,0.4,0.9,0.6,1.4,0.6c0.5,0,1-0.2,1.4-0.6c6.9,9,9.4,8,12,8c2.6,0,5.1,1,7.1,2.9
		c0.4,0.4,0.9,0.6,1.4,0.6c0.5,0,1-0.2,1.4-0.6c0.8-0.8,0.8-2,0-2.8c19.2,5.4,15.6,4,12,4l12,4z"/>
</g>
</svg>
