<?xml version="1.0" encoding="utf-8"?>
<!-- generator: adobe illustrator 17.1.0, svg export plug-in . svg version: 6.00 build 0)  -->
<!doctype svg public "-//w3c//dtd svg 1.1//en" "http://www.w3.org/graphics/svg/1.1/dtd/svg11.dtd">
<svg version="1.1" id="ebene_1" xmlns="http://www.w3.org/2000/svg" xmlns:xlink="http://www.w3.org/1999/xlink" x="0px" y="0px"
	 viewbox="0 0 24 24" enable-background="new 0 0 24 24" xml:space="preserve">
<path d="m14.7,19.5c-2.5,0-4.5-2-4.5-4.5c0-0.6-0.4-1-1-1c-0.6,0-1,0.4-1,1c0,3.6,2.9,6.5,6.5,6.5s6.5-2.9,6.5-6.5s-2.9-6.5-6.5-6.5
	c-0.6,0-1,0.4-1,1s0.4,1,1,1c2.5,0,4.5,2,4.5,4.5s17.2,19.5,14.7,19.5z m5.9,12.5c-0.6,0-1-0.4-1-1s0.4-1,1-1h3.2l7.4,8.8l3.3,4.7
	c-0.4-0.4-0.4-1,0-1.4c3.5,3.1,3.7,3,4,3s0.5,0.1,0.7,0.3l4.1,4.1l1.7,1.7v5.8c0-0.6,0.4-1,1-1s1,0.4,1,1v6.7l5.9,12.5 m7.5,0.8
	c0.6,0,1,0.4,1,1s-0.4,1-1,1h4.3l6,4.5l4.1,4.1c0.4,0.4,0.4,1,0,1.4c-0.2,0.2-0.4,0.3-0.7,0.3s8.9,10.2,8.7,10l4.6,5.9l2.9,4.2v3.2
	c0,0.6-0.4,1-1,1s-1-0.4-1-1v0.8l7.5,0.8"/>
</svg>
